<svg width="28" height="18" viewBox="0 0 28 18" fill="none" xmlns="http://www.w3.org/2000/svg">
<path d="M20.0636 1.10204H6.93073C6.62641 1.10204 6.37971 0.855341 6.37971 0.55102C6.37971 0.2467 6.62641 0 6.93073 0H20.4408C20.6682 0 20.8722 0.139658 20.9545 0.35162L27.514 17.2496C27.6542 17.6107 27.3877 18 27.0003 18H0.551315C0.19001 18 -0.0735271 17.6581 0.0184473 17.3087C1.6662 11.049 4.8372 7.83681 9.4962 7.83681H22.6779L20.0636 1.10204ZM23.1057 8.93885H9.4962C5.57415 8.93885 2.84452 11.5434 1.27619 16.898H26.1953L23.1057 8.93885Z" fill="#F7F5F3"/>
<path d="M10.8384 14.5106C11.6499 14.5106 12.3078 13.8527 12.3078 13.0412C12.3078 12.2296 11.6499 11.5718 10.8384 11.5718C10.0269 11.5718 9.36902 12.2296 9.36902 13.0412C9.36902 13.8527 10.0269 14.5106 10.8384 14.5106Z" fill="#F7F5F3"/>
<path d="M16.7113 14.5106C17.5229 14.5106 18.1807 13.8527 18.1807 13.0412C18.1807 12.2296 17.5229 11.5718 16.7113 11.5718C15.8998 11.5718 15.2419 12.2296 15.2419 13.0412C15.2419 13.8527 15.8998 14.5106 16.7113 14.5106Z" fill="#F7F5F3"/>
</svg>
