<svg width="25" height="24" viewBox="0 0 25 24" fill="none" xmlns="http://www.w3.org/2000/svg">
<path d="M1.62645 1.07463V22.9254H23.4772V1.07463H1.62645ZM1.08913 0H24.0145C24.3113 0 24.5518 0.240563 24.5518 0.537313V23.4627C24.5518 23.7594 24.3113 24 24.0145 24H1.08913C0.792382 24 0.551819 23.7594 0.551819 23.4627V0.537313C0.551819 0.240563 0.792382 0 1.08913 0Z" fill="#F7F5F3"/>
<path d="M12.5518 22.5669C6.71576 22.5669 1.98468 17.8359 1.98468 11.9998C1.98468 6.1637 6.71576 1.43262 12.5518 1.43262C18.3879 1.43262 23.119 6.1637 23.119 11.9998C23.119 17.8359 18.3879 22.5669 12.5518 22.5669ZM12.5518 21.4923C17.7944 21.4923 22.0444 17.2424 22.0444 11.9998C22.0444 6.7572 17.7944 2.50724 12.5518 2.50724C7.30926 2.50724 3.05931 6.7572 3.05931 11.9998C3.05931 17.2424 7.30926 21.4923 12.5518 21.4923Z" fill="#F7F5F3"/>
<path d="M22.1501 20.8127L3.68696 2.34956C3.46964 2.13223 3.11728 2.13223 2.89995 2.34956C2.68262 2.56689 2.68262 2.91925 2.89995 3.13658L21.3631 21.5998C21.5805 21.8171 21.9328 21.8171 22.1501 21.5998C22.3675 21.3824 22.3675 21.0301 22.1501 20.8127Z" fill="#F7F5F3"/>
<path d="M21.3638 2.34937L2.90059 20.8125C2.68326 21.0299 2.68326 21.3822 2.90059 21.5996C3.11792 21.8169 3.47027 21.8169 3.6876 21.5996L22.1508 3.13639C22.3681 2.91906 22.3681 2.5667 22.1508 2.34937C21.9334 2.13204 21.5811 2.13204 21.3638 2.34937Z" fill="#F7F5F3"/>
</svg>
