<svg width="214" height="140" viewBox="0 0 214 140" fill="none" xmlns="http://www.w3.org/2000/svg">
<path d="M124.829 18.8896L124.105 18.754C123.563 18.6636 123.021 18.6184 122.479 18.5733C122.479 18.1439 122.501 17.8276 122.524 17.8276V2.48547V2.44028V2.3499C122.569 1.92059 123.179 0.700451 129.031 0.700451V0H111.271V0.700451C116.943 0.700451 117.711 1.85281 117.779 2.30471V2.48547V18.5733C115.406 18.7766 113.102 19.2963 110.955 20.1097C110.526 20.2679 110.096 20.4261 109.69 20.6294C107.227 21.6914 104.945 23.0923 102.934 24.8095L102.369 25.3292C97.0364 30.1194 93.6698 37.0335 93.6698 44.7159V66.0232C93.1727 65.978 92.6982 65.9102 92.2237 65.8198L91.9525 65.7746C91.591 65.7068 91.2295 65.6391 90.8905 65.5261C81.3554 63.244 74.2831 54.7256 74.2831 44.5803C74.2831 32.7179 84.0442 23.0245 96.0423 23.0245H99.9738L100.155 22.8438C102.166 21.1265 104.448 19.703 106.911 18.6636L107.747 18.3247H96.0423C81.4232 18.3247 69.5381 30.0968 69.5381 44.5803C69.5381 59.0639 81.4232 70.836 96.0423 70.836C101.51 70.836 106.594 69.1865 110.82 66.3621L110.932 66.2943C111.836 65.6843 112.672 65.029 113.486 64.3285C119.022 59.5158 122.524 52.4435 122.524 44.6029V23.3182C123.044 23.386 123.586 23.4538 124.105 23.5442L124.444 23.612C134.386 25.5778 141.911 34.2995 141.911 44.7159C141.911 56.601 132.149 66.2717 120.151 66.2717H116.152C114.005 68.2149 111.52 69.8192 108.809 70.9715H120.129C134.748 70.9715 146.633 59.1994 146.633 44.7159C146.633 31.8366 137.188 21.0813 124.806 18.8896M102.007 65.3227C100.855 65.6617 99.6349 65.8876 98.4148 66.0232V44.7159C98.4148 35.723 103.973 28.0406 111.881 24.8095C113.734 24.0413 115.723 23.5216 117.801 23.2957V44.5803C117.801 54.4318 111.113 62.7243 102.007 65.3001" fill="#D5CCC3"/>
<path d="M98.3989 87.2178V87.0371V73.4573C98.3989 73.4573 95.1678 73.5929 93.6539 73.3218V87.0371V87.2404C93.5635 87.7149 92.7727 88.8447 87.1465 88.8447V89.5451H104.906V88.8447C99.2801 88.8447 98.4893 87.7149 98.3989 87.2404" fill="#D5CCC3"/>
</svg>
