<svg width="56" height="64" viewBox="0 0 56 64" fill="none" xmlns="http://www.w3.org/2000/svg">
<path d="M39.5172 13.5008L39.0004 13.4039C38.6128 13.3393 38.2252 13.307 37.8376 13.2747C37.8376 12.9678 37.8538 12.7417 37.8699 12.7417V1.67952C37.9022 1.37268 38.3383 0.500626 42.5209 0.500626V0H29.8276V0.500626C33.8811 0.500626 34.4302 1.32424 34.4786 1.64722V13.2747C32.7829 13.42 31.1357 13.7914 29.6015 14.3728C29.2947 14.4859 28.9879 14.5989 28.6972 14.7442C26.9369 15.5033 25.3058 16.5045 23.8686 17.7319L23.4648 18.1033C19.6536 21.5269 17.2474 26.4686 17.2474 31.9593V47.188C16.8921 47.1558 16.553 47.1073 16.2138 47.0427L16.02 47.0104C15.7616 46.962 15.5033 46.9135 15.261 46.8328C8.44605 45.2017 3.39134 39.1134 3.39134 31.8624C3.39134 23.3841 10.3678 16.4561 18.943 16.4561H21.753L21.8822 16.3269C23.3195 15.0995 24.9506 14.0821 26.7108 13.3393L27.3083 13.097H18.943C8.49449 13.097 0 21.5108 0 31.8624C0 42.2141 8.49449 50.6278 18.943 50.6278C22.8512 50.6278 26.4847 49.4489 29.5046 47.4303L29.5854 47.3818C30.2314 46.9458 30.8289 46.4775 31.4102 45.9769C35.3668 42.5371 37.8699 37.4824 37.8699 31.8786V16.666C38.2414 16.7145 38.629 16.7629 39.0004 16.8275L39.2426 16.8759C46.3483 18.2809 51.726 24.5145 51.726 31.9593C51.726 40.4538 44.7495 47.3657 36.1743 47.3657H33.3159C31.7817 48.7545 30.0053 49.9011 28.0674 50.7247H36.1581C46.6067 50.7247 55.1012 42.311 55.1012 31.9593C55.1012 22.7543 48.3508 15.0672 39.501 13.5008M23.2064 46.6874C22.3828 46.9297 21.5108 47.0912 20.6387 47.188V31.9593C20.6387 25.5319 24.6114 20.0412 30.2637 17.7319C31.5879 17.1828 33.009 16.8113 34.4948 16.6499V31.8624C34.4948 38.9035 29.7146 44.8303 23.2064 46.6713" fill="#D5CCC3"/>
<path d="M20.6281 62.3366V52.5017C20.6281 52.5017 18.3187 52.5986 17.2367 52.4049V62.3528C17.1721 62.6919 16.6069 63.4994 12.5858 63.4994V64H25.2791V63.4994C21.2579 63.4994 20.6927 62.6919 20.6281 62.3528" fill="#D5CCC3"/>
</svg>
